<?xml version="1.0" encoding="utf-8"?>
<svg viewBox="0 0 500 500" style="" xmlns="http://www.w3.org/2000/svg" xmlns:bx="https://boxy-svg.com">
  <ellipse style="fill-opacity: 0; fill: rgb(255, 255, 255); stroke-width: 50px; stroke: rgb(255, 255, 255);" cx="250" cy="250" rx="109.43" ry="109.43"/>
  <rect style="stroke-miterlimit: 12; paint-order: stroke; fill-rule: nonzero; fill: rgb(255, 255, 255); stroke-width: 29px; stroke: rgb(255, 255, 255);" x="238" width="20.954" height="60.536" rx="10" ry="10" y="20" bx:origin="0.572683 3.799392"/>
  <rect style="stroke-miterlimit: 12; paint-order: stroke; fill-rule: nonzero; fill: rgb(255, 255, 255); stroke-width: 29px; stroke: rgb(255, 255, 255);" x="239.523" y="419" width="20.954" height="60.536" rx="10" ry="10" bx:origin="0.5 -2.791727"/>
  <rect style="stroke-miterlimit: 12; paint-order: stroke; fill-rule: nonzero; fill: rgb(255, 255, 255); stroke-width: 29px; stroke: rgb(255, 255, 255);" x="238.762" width="20.954" height="60.536" rx="10" ry="10" y="20.232" transform="matrix(0, -1, 1, 0, 0.530001, 500.993988)" bx:origin="0.572683 3.799392"/>
  <rect style="stroke-miterlimit: 12; paint-order: stroke; fill-rule: nonzero; fill: rgb(255, 255, 255); stroke-width: 29px; stroke: rgb(255, 255, 255);" x="240.284" y="419.232" width="20.954" height="60.536" rx="10" ry="10" transform="matrix(0, -1, 1, 0, 0.530001, 500.993988)" bx:origin="0.5 -2.791727"/>
  <rect style="stroke-miterlimit: 12; paint-order: stroke; fill-rule: nonzero; fill: rgb(255, 255, 255); stroke-width: 29px; stroke: rgb(255, 255, 255);" x="237.47" width="20.954" height="60.536" rx="10" ry="10" y="20.232" transform="matrix(0.707107, 0.707107, -0.707107, 0.707107, 250.396774, -103.581245)" bx:origin="0.572683 3.799392"/>
  <rect style="stroke-miterlimit: 12; paint-order: stroke; fill-rule: nonzero; fill: rgb(255, 255, 255); stroke-width: 29px; stroke: rgb(255, 255, 255);" x="238.993" y="419.232" width="20.954" height="60.536" rx="10" ry="10" transform="matrix(0.707107, 0.707107, -0.707107, 0.707107, 250.396774, -103.581245)" bx:origin="0.5 -2.791727"/>
  <rect style="stroke-miterlimit: 12; paint-order: stroke; fill-rule: nonzero; fill: rgb(255, 255, 255); stroke-width: 29px; stroke: rgb(255, 255, 255);" x="238.762" width="20.954" height="60.536" rx="10" ry="10" y="20.232" transform="matrix(0.707107, -0.707107, 0.707107, 0.707107, -104.023537, 250.839066)" bx:origin="0.572683 3.799392"/>
  <rect style="stroke-miterlimit: 12; paint-order: stroke; fill-rule: nonzero; fill: rgb(255, 255, 255); stroke-width: 29px; stroke: rgb(255, 255, 255);" x="240.284" y="419.232" width="20.954" height="60.536" rx="10" ry="10" transform="matrix(0.707107, -0.707107, 0.707107, 0.707107, -104.023537, 250.839066)" bx:origin="0.5 -2.791727"/>
</svg>